<mxfile host="app.diagrams.net" modified="2024-07-08T02:44:07.133Z" agent="Mozilla/5.0 (Macintosh; Intel Mac OS X 10_15_7) AppleWebKit/537.36 (KHTML, like Gecko) Chrome/126.0.0.0 Safari/537.36" etag="pBQljKWJG--b0J695q_h" version="24.6.4" type="github">
  <diagram id="C5RBs43oDa-KdzZeNtuy" name="Page-1">
    <mxGraphModel dx="4700" dy="1937" grid="1" gridSize="10" guides="1" tooltips="1" connect="1" arrows="1" fold="1" page="1" pageScale="1" pageWidth="827" pageHeight="1169" math="0" shadow="0">
      <root>
        <mxCell id="WIyWlLk6GJQsqaUBKTNV-0" />
        <mxCell id="WIyWlLk6GJQsqaUBKTNV-1" parent="WIyWlLk6GJQsqaUBKTNV-0" />
        <mxCell id="Yi7EaOiz9kuQJB8V7nBB-4" value="&lt;span style=&quot;font-family: -webkit-standard; text-align: start; caret-color: rgb(0, 0, 0);&quot;&gt;&lt;font style=&quot;font-size: 12px;&quot;&gt;前端工期&lt;/font&gt;&lt;/span&gt;&lt;span style=&quot;text-wrap: nowrap;&quot;&gt;评估&lt;/span&gt;" style="rounded=1;whiteSpace=wrap;html=1;fontSize=12;glass=0;strokeWidth=1;shadow=0;" parent="WIyWlLk6GJQsqaUBKTNV-1" vertex="1">
          <mxGeometry x="-706.25" y="239" width="87" height="30" as="geometry" />
        </mxCell>
        <mxCell id="Yi7EaOiz9kuQJB8V7nBB-14" value="&lt;span style=&quot;font-family: -webkit-standard; text-align: start; caret-color: rgb(0, 0, 0);&quot;&gt;&lt;font style=&quot;font-size: 12px;&quot;&gt;前端界面开发&lt;/font&gt;&lt;/span&gt;" style="rounded=1;whiteSpace=wrap;html=1;fontSize=12;glass=0;strokeWidth=1;shadow=0;" parent="WIyWlLk6GJQsqaUBKTNV-1" vertex="1">
          <mxGeometry x="-534.75" y="239" width="90" height="30" as="geometry" />
        </mxCell>
        <mxCell id="Yi7EaOiz9kuQJB8V7nBB-21" style="edgeStyle=orthogonalEdgeStyle;rounded=0;orthogonalLoop=1;jettySize=auto;html=1;entryX=0;entryY=0.5;entryDx=0;entryDy=0;exitX=1;exitY=0.5;exitDx=0;exitDy=0;" parent="WIyWlLk6GJQsqaUBKTNV-1" source="Yi7EaOiz9kuQJB8V7nBB-14" target="Yi7EaOiz9kuQJB8V7nBB-19" edge="1">
          <mxGeometry relative="1" as="geometry">
            <mxPoint x="-449.75" y="254.75" as="sourcePoint" />
          </mxGeometry>
        </mxCell>
        <mxCell id="Yi7EaOiz9kuQJB8V7nBB-60" style="edgeStyle=orthogonalEdgeStyle;rounded=0;orthogonalLoop=1;jettySize=auto;html=1;exitX=1;exitY=0.5;exitDx=0;exitDy=0;entryX=0;entryY=0.5;entryDx=0;entryDy=0;" parent="WIyWlLk6GJQsqaUBKTNV-1" source="Yi7EaOiz9kuQJB8V7nBB-19" target="Yi7EaOiz9kuQJB8V7nBB-59" edge="1">
          <mxGeometry relative="1" as="geometry">
            <mxPoint x="-240.75" y="255.5" as="sourcePoint" />
          </mxGeometry>
        </mxCell>
        <mxCell id="Yi7EaOiz9kuQJB8V7nBB-19" value="&lt;span style=&quot;font-family: -webkit-standard; text-align: start; caret-color: rgb(0, 0, 0);&quot;&gt;&lt;font style=&quot;font-size: 12px;&quot;&gt;前后端接口联调&lt;/font&gt;&lt;/span&gt;" style="rounded=1;whiteSpace=wrap;html=1;fontSize=12;glass=0;strokeWidth=1;shadow=0;" parent="WIyWlLk6GJQsqaUBKTNV-1" vertex="1">
          <mxGeometry x="-360.75" y="239.5" width="110" height="30" as="geometry" />
        </mxCell>
        <mxCell id="mbf3BSNoUGLcC62J1Hfp-57" style="edgeStyle=orthogonalEdgeStyle;rounded=0;orthogonalLoop=1;jettySize=auto;html=1;entryX=1;entryY=0.5;entryDx=0;entryDy=0;exitX=0.5;exitY=0;exitDx=0;exitDy=0;" edge="1" parent="WIyWlLk6GJQsqaUBKTNV-1" source="Yi7EaOiz9kuQJB8V7nBB-22" target="mbf3BSNoUGLcC62J1Hfp-55">
          <mxGeometry relative="1" as="geometry" />
        </mxCell>
        <mxCell id="mbf3BSNoUGLcC62J1Hfp-60" value="UI 验收不通过" style="edgeLabel;html=1;align=center;verticalAlign=middle;resizable=0;points=[];" vertex="1" connectable="0" parent="mbf3BSNoUGLcC62J1Hfp-57">
          <mxGeometry x="-0.5244" y="1" relative="1" as="geometry">
            <mxPoint x="-39" y="-42" as="offset" />
          </mxGeometry>
        </mxCell>
        <mxCell id="Yi7EaOiz9kuQJB8V7nBB-22" value="" style="rhombus;whiteSpace=wrap;html=1;shadow=0;fontFamily=Helvetica;fontSize=12;align=center;strokeWidth=1;spacing=6;spacingTop=-4;" parent="WIyWlLk6GJQsqaUBKTNV-1" vertex="1">
          <mxGeometry x="67.25" y="241.5" width="60" height="27.5" as="geometry" />
        </mxCell>
        <mxCell id="Yi7EaOiz9kuQJB8V7nBB-47" value="&lt;span style=&quot;font-family: -webkit-standard; text-align: start; caret-color: rgb(0, 0, 0);&quot;&gt;&lt;font style=&quot;font-size: 12px;&quot;&gt;界面代码交付&lt;/font&gt;&lt;/span&gt;" style="rounded=1;whiteSpace=wrap;html=1;fontSize=12;glass=0;strokeWidth=1;shadow=0;" parent="WIyWlLk6GJQsqaUBKTNV-1" vertex="1">
          <mxGeometry x="258.25" y="239.75" width="90" height="30" as="geometry" />
        </mxCell>
        <mxCell id="Yi7EaOiz9kuQJB8V7nBB-61" style="edgeStyle=orthogonalEdgeStyle;rounded=0;orthogonalLoop=1;jettySize=auto;html=1;entryX=0;entryY=0.5;entryDx=0;entryDy=0;" parent="WIyWlLk6GJQsqaUBKTNV-1" source="Yi7EaOiz9kuQJB8V7nBB-59" target="Yi7EaOiz9kuQJB8V7nBB-22" edge="1">
          <mxGeometry relative="1" as="geometry" />
        </mxCell>
        <mxCell id="Yi7EaOiz9kuQJB8V7nBB-59" value="&lt;div style=&quot;text-align: start;&quot;&gt;&lt;span style=&quot;background-color: initial; font-family: -webkit-standard;&quot;&gt;前端界面验收&lt;/span&gt;&lt;/div&gt;" style="rounded=1;whiteSpace=wrap;html=1;fontSize=12;glass=0;strokeWidth=1;shadow=0;" parent="WIyWlLk6GJQsqaUBKTNV-1" vertex="1">
          <mxGeometry x="-180.75" y="239.5" width="90" height="30" as="geometry" />
        </mxCell>
        <mxCell id="mbf3BSNoUGLcC62J1Hfp-21" value="" style="endArrow=none;dashed=1;html=1;rounded=0;" edge="1" parent="WIyWlLk6GJQsqaUBKTNV-1">
          <mxGeometry width="50" height="50" relative="1" as="geometry">
            <mxPoint x="-747.25" y="110" as="sourcePoint" />
            <mxPoint x="-747.25" y="330" as="targetPoint" />
          </mxGeometry>
        </mxCell>
        <mxCell id="mbf3BSNoUGLcC62J1Hfp-22" value="WireFrame已交接" style="text;html=1;align=center;verticalAlign=middle;resizable=0;points=[];autosize=1;strokeColor=none;fillColor=none;" vertex="1" parent="WIyWlLk6GJQsqaUBKTNV-1">
          <mxGeometry x="-807.25" y="340" width="120" height="30" as="geometry" />
        </mxCell>
        <mxCell id="mbf3BSNoUGLcC62J1Hfp-26" style="edgeStyle=orthogonalEdgeStyle;rounded=0;orthogonalLoop=1;jettySize=auto;html=1;entryX=0;entryY=0.5;entryDx=0;entryDy=0;" edge="1" parent="WIyWlLk6GJQsqaUBKTNV-1" source="Yi7EaOiz9kuQJB8V7nBB-4" target="Yi7EaOiz9kuQJB8V7nBB-14">
          <mxGeometry relative="1" as="geometry">
            <mxPoint x="-611.75" y="254" as="sourcePoint" />
            <mxPoint x="-563.6216577540108" y="255.05882352941182" as="targetPoint" />
            <Array as="points" />
          </mxGeometry>
        </mxCell>
        <mxCell id="mbf3BSNoUGLcC62J1Hfp-52" value="" style="edgeStyle=orthogonalEdgeStyle;rounded=0;orthogonalLoop=1;jettySize=auto;html=1;entryX=0;entryY=0.5;entryDx=0;entryDy=0;" edge="1" parent="WIyWlLk6GJQsqaUBKTNV-1" source="Yi7EaOiz9kuQJB8V7nBB-22">
          <mxGeometry relative="1" as="geometry">
            <mxPoint x="14.25" y="256" as="sourcePoint" />
            <mxPoint x="257.25" y="254.75" as="targetPoint" />
          </mxGeometry>
        </mxCell>
        <mxCell id="mbf3BSNoUGLcC62J1Hfp-59" value="&amp;nbsp;UI 验收通过" style="edgeLabel;html=1;align=center;verticalAlign=middle;resizable=0;points=[];" vertex="1" connectable="0" parent="mbf3BSNoUGLcC62J1Hfp-52">
          <mxGeometry x="-0.0446" relative="1" as="geometry">
            <mxPoint x="-29" y="-9" as="offset" />
          </mxGeometry>
        </mxCell>
        <mxCell id="mbf3BSNoUGLcC62J1Hfp-58" style="edgeStyle=orthogonalEdgeStyle;rounded=0;orthogonalLoop=1;jettySize=auto;html=1;" edge="1" parent="WIyWlLk6GJQsqaUBKTNV-1" source="mbf3BSNoUGLcC62J1Hfp-55" target="Yi7EaOiz9kuQJB8V7nBB-59">
          <mxGeometry relative="1" as="geometry" />
        </mxCell>
        <mxCell id="mbf3BSNoUGLcC62J1Hfp-55" value="&lt;div style=&quot;text-align: start;&quot;&gt;&lt;span style=&quot;background-color: initial;&quot;&gt;&lt;font face=&quot;-webkit-standard&quot;&gt;BUG修复&lt;/font&gt;&lt;/span&gt;&lt;/div&gt;" style="rounded=1;whiteSpace=wrap;html=1;fontSize=12;glass=0;strokeWidth=1;shadow=0;" vertex="1" parent="WIyWlLk6GJQsqaUBKTNV-1">
          <mxGeometry x="-77.75" y="160" width="90" height="30" as="geometry" />
        </mxCell>
        <mxCell id="mbf3BSNoUGLcC62J1Hfp-62" value="" style="endArrow=none;dashed=1;html=1;rounded=0;" edge="1" parent="WIyWlLk6GJQsqaUBKTNV-1">
          <mxGeometry width="50" height="50" relative="1" as="geometry">
            <mxPoint x="-583.75" y="110" as="sourcePoint" />
            <mxPoint x="-583.75" y="330" as="targetPoint" />
          </mxGeometry>
        </mxCell>
        <mxCell id="mbf3BSNoUGLcC62J1Hfp-65" value="" style="endArrow=none;dashed=1;html=1;rounded=0;" edge="1" parent="WIyWlLk6GJQsqaUBKTNV-1">
          <mxGeometry width="50" height="50" relative="1" as="geometry">
            <mxPoint x="-210.75" y="111" as="sourcePoint" />
            <mxPoint x="-210.75" y="331" as="targetPoint" />
          </mxGeometry>
        </mxCell>
        <mxCell id="mbf3BSNoUGLcC62J1Hfp-67" value="" style="endArrow=none;dashed=1;html=1;rounded=0;" edge="1" parent="WIyWlLk6GJQsqaUBKTNV-1">
          <mxGeometry width="50" height="50" relative="1" as="geometry">
            <mxPoint x="-403.75" y="110" as="sourcePoint" />
            <mxPoint x="-403.75" y="330" as="targetPoint" />
          </mxGeometry>
        </mxCell>
        <mxCell id="mbf3BSNoUGLcC62J1Hfp-69" value="联调完成" style="text;html=1;align=center;verticalAlign=middle;resizable=0;points=[];autosize=1;strokeColor=none;fillColor=none;" vertex="1" parent="WIyWlLk6GJQsqaUBKTNV-1">
          <mxGeometry x="-247.75" y="340" width="70" height="30" as="geometry" />
        </mxCell>
        <mxCell id="mbf3BSNoUGLcC62J1Hfp-70" value="页面开发完成" style="text;html=1;align=center;verticalAlign=middle;resizable=0;points=[];autosize=1;strokeColor=none;fillColor=none;" vertex="1" parent="WIyWlLk6GJQsqaUBKTNV-1">
          <mxGeometry x="-460.75" y="340" width="100" height="30" as="geometry" />
        </mxCell>
        <mxCell id="mbf3BSNoUGLcC62J1Hfp-71" value="" style="endArrow=none;dashed=1;html=1;rounded=0;" edge="1" parent="WIyWlLk6GJQsqaUBKTNV-1">
          <mxGeometry width="50" height="50" relative="1" as="geometry">
            <mxPoint x="238.25" y="110" as="sourcePoint" />
            <mxPoint x="238.25" y="330" as="targetPoint" />
          </mxGeometry>
        </mxCell>
        <mxCell id="mbf3BSNoUGLcC62J1Hfp-72" value="可交付" style="text;html=1;align=center;verticalAlign=middle;resizable=0;points=[];autosize=1;strokeColor=none;fillColor=none;" vertex="1" parent="WIyWlLk6GJQsqaUBKTNV-1">
          <mxGeometry x="209" y="340" width="60" height="30" as="geometry" />
        </mxCell>
        <mxCell id="mbf3BSNoUGLcC62J1Hfp-74" value="&lt;font style=&quot;font-size: 18px;&quot;&gt;&lt;b style=&quot;&quot;&gt;Sub PF&lt;/b&gt;&lt;/font&gt;" style="text;html=1;align=center;verticalAlign=middle;whiteSpace=wrap;rounded=0;" vertex="1" parent="WIyWlLk6GJQsqaUBKTNV-1">
          <mxGeometry x="-827" y="430" width="180" height="30" as="geometry" />
        </mxCell>
        <mxCell id="mbf3BSNoUGLcC62J1Hfp-76" value="&lt;b&gt;&lt;span style=&quot;font-family: -webkit-standard; text-align: start; caret-color: rgb(0, 0, 0);&quot;&gt;前端工期&lt;/span&gt;&lt;span style=&quot;text-wrap: nowrap;&quot;&gt;评估&lt;/span&gt;&lt;/b&gt;" style="text;html=1;align=center;verticalAlign=middle;whiteSpace=wrap;rounded=0;" vertex="1" parent="WIyWlLk6GJQsqaUBKTNV-1">
          <mxGeometry x="-809" y="500" width="180" height="30" as="geometry" />
        </mxCell>
        <mxCell id="mbf3BSNoUGLcC62J1Hfp-128" style="edgeStyle=orthogonalEdgeStyle;rounded=0;orthogonalLoop=1;jettySize=auto;html=1;entryX=0;entryY=0.5;entryDx=0;entryDy=0;" edge="1" parent="WIyWlLk6GJQsqaUBKTNV-1" source="mbf3BSNoUGLcC62J1Hfp-79" target="mbf3BSNoUGLcC62J1Hfp-101">
          <mxGeometry relative="1" as="geometry" />
        </mxCell>
        <mxCell id="mbf3BSNoUGLcC62J1Hfp-79" value="&lt;div style=&quot;text-align: start;&quot;&gt;&lt;span style=&quot;background-color: initial;&quot;&gt;&lt;font face=&quot;-webkit-standard&quot;&gt;任务拆分&lt;/font&gt;&lt;/span&gt;&lt;/div&gt;" style="rounded=1;whiteSpace=wrap;html=1;fontSize=12;glass=0;strokeWidth=1;shadow=0;" vertex="1" parent="WIyWlLk6GJQsqaUBKTNV-1">
          <mxGeometry x="-610" y="570" width="90" height="30" as="geometry" />
        </mxCell>
        <mxCell id="mbf3BSNoUGLcC62J1Hfp-80" value="工期评估完成" style="text;html=1;align=center;verticalAlign=middle;resizable=0;points=[];autosize=1;strokeColor=none;fillColor=none;" vertex="1" parent="WIyWlLk6GJQsqaUBKTNV-1">
          <mxGeometry x="-634.75" y="340" width="100" height="30" as="geometry" />
        </mxCell>
        <mxCell id="mbf3BSNoUGLcC62J1Hfp-83" value="" style="endArrow=none;dashed=1;html=1;rounded=0;" edge="1" parent="WIyWlLk6GJQsqaUBKTNV-1">
          <mxGeometry width="50" height="50" relative="1" as="geometry">
            <mxPoint x="-639.75" y="473" as="sourcePoint" />
            <mxPoint x="-639.75" y="693" as="targetPoint" />
          </mxGeometry>
        </mxCell>
        <mxCell id="mbf3BSNoUGLcC62J1Hfp-84" value="WireFrame已交接" style="text;html=1;align=center;verticalAlign=middle;resizable=0;points=[];autosize=1;strokeColor=none;fillColor=none;" vertex="1" parent="WIyWlLk6GJQsqaUBKTNV-1">
          <mxGeometry x="-709" y="700" width="120" height="30" as="geometry" />
        </mxCell>
        <mxCell id="mbf3BSNoUGLcC62J1Hfp-107" style="edgeStyle=orthogonalEdgeStyle;rounded=0;orthogonalLoop=1;jettySize=auto;html=1;" edge="1" parent="WIyWlLk6GJQsqaUBKTNV-1" source="mbf3BSNoUGLcC62J1Hfp-101" target="mbf3BSNoUGLcC62J1Hfp-121">
          <mxGeometry relative="1" as="geometry">
            <mxPoint x="-358" y="585.090909090909" as="targetPoint" />
          </mxGeometry>
        </mxCell>
        <mxCell id="mbf3BSNoUGLcC62J1Hfp-101" value="方案选型" style="rounded=1;whiteSpace=wrap;html=1;fontSize=12;glass=0;strokeWidth=1;shadow=0;" vertex="1" parent="WIyWlLk6GJQsqaUBKTNV-1">
          <mxGeometry x="-481" y="570" width="90" height="30" as="geometry" />
        </mxCell>
        <mxCell id="mbf3BSNoUGLcC62J1Hfp-109" value="" style="endArrow=none;dashed=1;html=1;rounded=0;" edge="1" parent="WIyWlLk6GJQsqaUBKTNV-1">
          <mxGeometry width="50" height="50" relative="1" as="geometry">
            <mxPoint x="-120" y="474" as="sourcePoint" />
            <mxPoint x="-120" y="694" as="targetPoint" />
          </mxGeometry>
        </mxCell>
        <mxCell id="mbf3BSNoUGLcC62J1Hfp-110" value="工期评估完成" style="text;html=1;align=center;verticalAlign=middle;resizable=0;points=[];autosize=1;strokeColor=none;fillColor=none;" vertex="1" parent="WIyWlLk6GJQsqaUBKTNV-1">
          <mxGeometry x="-170" y="700" width="100" height="30" as="geometry" />
        </mxCell>
        <mxCell id="mbf3BSNoUGLcC62J1Hfp-112" value="&lt;font style=&quot;font-size: 12px;&quot;&gt;&lt;b style=&quot;&quot;&gt;组件库迭代&lt;/b&gt;&lt;/font&gt;" style="text;html=1;align=center;verticalAlign=middle;whiteSpace=wrap;rounded=0;" vertex="1" parent="WIyWlLk6GJQsqaUBKTNV-1">
          <mxGeometry x="12.25" y="840" width="180" height="30" as="geometry" />
        </mxCell>
        <mxCell id="mbf3BSNoUGLcC62J1Hfp-113" value="" style="endArrow=none;dashed=1;html=1;rounded=0;" edge="1" parent="WIyWlLk6GJQsqaUBKTNV-1">
          <mxGeometry width="50" height="50" relative="1" as="geometry">
            <mxPoint x="198.24999999999997" y="800" as="sourcePoint" />
            <mxPoint x="198.24999999999997" y="1020" as="targetPoint" />
          </mxGeometry>
        </mxCell>
        <mxCell id="mbf3BSNoUGLcC62J1Hfp-114" value="工期评估完成" style="text;html=1;align=center;verticalAlign=middle;resizable=0;points=[];autosize=1;strokeColor=none;fillColor=none;" vertex="1" parent="WIyWlLk6GJQsqaUBKTNV-1">
          <mxGeometry x="158.25" y="1030" width="100" height="30" as="geometry" />
        </mxCell>
        <mxCell id="mbf3BSNoUGLcC62J1Hfp-227" style="edgeStyle=orthogonalEdgeStyle;rounded=0;orthogonalLoop=1;jettySize=auto;html=1;" edge="1" parent="WIyWlLk6GJQsqaUBKTNV-1" source="mbf3BSNoUGLcC62J1Hfp-121" target="mbf3BSNoUGLcC62J1Hfp-225">
          <mxGeometry relative="1" as="geometry" />
        </mxCell>
        <mxCell id="mbf3BSNoUGLcC62J1Hfp-121" value="制定协作计划" style="rounded=1;whiteSpace=wrap;html=1;fontSize=12;glass=0;strokeWidth=1;shadow=0;" vertex="1" parent="WIyWlLk6GJQsqaUBKTNV-1">
          <mxGeometry x="-355.75" y="570.25" width="90" height="30" as="geometry" />
        </mxCell>
        <mxCell id="mbf3BSNoUGLcC62J1Hfp-145" style="edgeStyle=orthogonalEdgeStyle;rounded=0;orthogonalLoop=1;jettySize=auto;html=1;exitX=1;exitY=0.5;exitDx=0;exitDy=0;" edge="1" parent="WIyWlLk6GJQsqaUBKTNV-1" source="mbf3BSNoUGLcC62J1Hfp-124" target="mbf3BSNoUGLcC62J1Hfp-142">
          <mxGeometry relative="1" as="geometry" />
        </mxCell>
        <mxCell id="mbf3BSNoUGLcC62J1Hfp-124" value="组件封装" style="rounded=1;whiteSpace=wrap;html=1;fontSize=12;glass=0;strokeWidth=1;shadow=0;" vertex="1" parent="WIyWlLk6GJQsqaUBKTNV-1">
          <mxGeometry x="349.25" y="923.25" width="90" height="30" as="geometry" />
        </mxCell>
        <mxCell id="mbf3BSNoUGLcC62J1Hfp-141" style="edgeStyle=orthogonalEdgeStyle;rounded=0;orthogonalLoop=1;jettySize=auto;html=1;exitX=1;exitY=0.5;exitDx=0;exitDy=0;" edge="1" parent="WIyWlLk6GJQsqaUBKTNV-1" source="mbf3BSNoUGLcC62J1Hfp-133" target="mbf3BSNoUGLcC62J1Hfp-124">
          <mxGeometry relative="1" as="geometry" />
        </mxCell>
        <mxCell id="mbf3BSNoUGLcC62J1Hfp-172" value="存在未实现组件" style="edgeLabel;html=1;align=center;verticalAlign=middle;resizable=0;points=[];" vertex="1" connectable="0" parent="mbf3BSNoUGLcC62J1Hfp-141">
          <mxGeometry x="0.0596" y="2" relative="1" as="geometry">
            <mxPoint x="-10" y="-9" as="offset" />
          </mxGeometry>
        </mxCell>
        <mxCell id="mbf3BSNoUGLcC62J1Hfp-133" value="" style="rhombus;whiteSpace=wrap;html=1;shadow=0;fontFamily=Helvetica;fontSize=12;align=center;strokeWidth=1;spacing=6;spacingTop=-4;" vertex="1" parent="WIyWlLk6GJQsqaUBKTNV-1">
          <mxGeometry x="198.25" y="924.5" width="60" height="27.5" as="geometry" />
        </mxCell>
        <mxCell id="mbf3BSNoUGLcC62J1Hfp-147" style="edgeStyle=orthogonalEdgeStyle;rounded=0;orthogonalLoop=1;jettySize=auto;html=1;exitX=1;exitY=0.5;exitDx=0;exitDy=0;" edge="1" parent="WIyWlLk6GJQsqaUBKTNV-1" source="mbf3BSNoUGLcC62J1Hfp-142" target="mbf3BSNoUGLcC62J1Hfp-148">
          <mxGeometry relative="1" as="geometry">
            <mxPoint x="587.25" y="938.2972972972971" as="targetPoint" />
          </mxGeometry>
        </mxCell>
        <mxCell id="mbf3BSNoUGLcC62J1Hfp-142" value="组件验收" style="rounded=1;whiteSpace=wrap;html=1;fontSize=12;glass=0;strokeWidth=1;shadow=0;" vertex="1" parent="WIyWlLk6GJQsqaUBKTNV-1">
          <mxGeometry x="471.25" y="923" width="90" height="30" as="geometry" />
        </mxCell>
        <mxCell id="mbf3BSNoUGLcC62J1Hfp-151" style="edgeStyle=orthogonalEdgeStyle;rounded=0;orthogonalLoop=1;jettySize=auto;html=1;" edge="1" parent="WIyWlLk6GJQsqaUBKTNV-1" source="mbf3BSNoUGLcC62J1Hfp-148" target="mbf3BSNoUGLcC62J1Hfp-150">
          <mxGeometry relative="1" as="geometry" />
        </mxCell>
        <mxCell id="mbf3BSNoUGLcC62J1Hfp-152" value="UI 验收通过" style="edgeLabel;html=1;align=center;verticalAlign=middle;resizable=0;points=[];" vertex="1" connectable="0" parent="mbf3BSNoUGLcC62J1Hfp-151">
          <mxGeometry x="-0.0412" relative="1" as="geometry">
            <mxPoint x="-5" y="-8" as="offset" />
          </mxGeometry>
        </mxCell>
        <mxCell id="mbf3BSNoUGLcC62J1Hfp-161" style="edgeStyle=orthogonalEdgeStyle;rounded=0;orthogonalLoop=1;jettySize=auto;html=1;entryX=1;entryY=0.5;entryDx=0;entryDy=0;" edge="1" parent="WIyWlLk6GJQsqaUBKTNV-1" source="mbf3BSNoUGLcC62J1Hfp-148" target="mbf3BSNoUGLcC62J1Hfp-157">
          <mxGeometry relative="1" as="geometry">
            <Array as="points">
              <mxPoint x="664.25" y="868" />
            </Array>
          </mxGeometry>
        </mxCell>
        <mxCell id="mbf3BSNoUGLcC62J1Hfp-162" value="UI 验收不通过" style="edgeLabel;html=1;align=center;verticalAlign=middle;resizable=0;points=[];" vertex="1" connectable="0" parent="mbf3BSNoUGLcC62J1Hfp-161">
          <mxGeometry x="0.0437" y="-1" relative="1" as="geometry">
            <mxPoint x="12" y="-17" as="offset" />
          </mxGeometry>
        </mxCell>
        <mxCell id="mbf3BSNoUGLcC62J1Hfp-148" value="" style="rhombus;whiteSpace=wrap;html=1;shadow=0;fontFamily=Helvetica;fontSize=12;align=center;strokeWidth=1;spacing=6;spacingTop=-4;" vertex="1" parent="WIyWlLk6GJQsqaUBKTNV-1">
          <mxGeometry x="634.25" y="924.25" width="60" height="27.5" as="geometry" />
        </mxCell>
        <mxCell id="mbf3BSNoUGLcC62J1Hfp-240" style="edgeStyle=orthogonalEdgeStyle;rounded=0;orthogonalLoop=1;jettySize=auto;html=1;" edge="1" parent="WIyWlLk6GJQsqaUBKTNV-1" source="mbf3BSNoUGLcC62J1Hfp-150" target="mbf3BSNoUGLcC62J1Hfp-238">
          <mxGeometry relative="1" as="geometry" />
        </mxCell>
        <mxCell id="mbf3BSNoUGLcC62J1Hfp-150" value="组件交付" style="rounded=1;whiteSpace=wrap;html=1;fontSize=12;glass=0;strokeWidth=1;shadow=0;" vertex="1" parent="WIyWlLk6GJQsqaUBKTNV-1">
          <mxGeometry x="768.25" y="923" width="90" height="30" as="geometry" />
        </mxCell>
        <mxCell id="mbf3BSNoUGLcC62J1Hfp-242" style="edgeStyle=orthogonalEdgeStyle;rounded=0;orthogonalLoop=1;jettySize=auto;html=1;" edge="1" parent="WIyWlLk6GJQsqaUBKTNV-1" source="mbf3BSNoUGLcC62J1Hfp-155" target="mbf3BSNoUGLcC62J1Hfp-168">
          <mxGeometry relative="1" as="geometry" />
        </mxCell>
        <mxCell id="mbf3BSNoUGLcC62J1Hfp-155" value="" style="rhombus;whiteSpace=wrap;html=1;shadow=0;fontFamily=Helvetica;fontSize=12;align=center;strokeWidth=1;spacing=6;spacingTop=-4;" vertex="1" parent="WIyWlLk6GJQsqaUBKTNV-1">
          <mxGeometry x="1076" y="923.5" width="60" height="27.5" as="geometry" />
        </mxCell>
        <mxCell id="mbf3BSNoUGLcC62J1Hfp-160" style="edgeStyle=orthogonalEdgeStyle;rounded=0;orthogonalLoop=1;jettySize=auto;html=1;exitX=0;exitY=0.5;exitDx=0;exitDy=0;" edge="1" parent="WIyWlLk6GJQsqaUBKTNV-1" source="mbf3BSNoUGLcC62J1Hfp-157" target="mbf3BSNoUGLcC62J1Hfp-142">
          <mxGeometry relative="1" as="geometry" />
        </mxCell>
        <mxCell id="mbf3BSNoUGLcC62J1Hfp-157" value="BUG 修复" style="rounded=1;whiteSpace=wrap;html=1;fontSize=12;glass=0;strokeWidth=1;shadow=0;" vertex="1" parent="WIyWlLk6GJQsqaUBKTNV-1">
          <mxGeometry x="536.25" y="853" width="90" height="30" as="geometry" />
        </mxCell>
        <mxCell id="mbf3BSNoUGLcC62J1Hfp-164" style="edgeStyle=orthogonalEdgeStyle;rounded=0;orthogonalLoop=1;jettySize=auto;html=1;entryX=0.5;entryY=0;entryDx=0;entryDy=0;" edge="1" parent="WIyWlLk6GJQsqaUBKTNV-1" source="mbf3BSNoUGLcC62J1Hfp-163" target="mbf3BSNoUGLcC62J1Hfp-150">
          <mxGeometry relative="1" as="geometry">
            <Array as="points">
              <mxPoint x="813.25" y="868" />
            </Array>
          </mxGeometry>
        </mxCell>
        <mxCell id="mbf3BSNoUGLcC62J1Hfp-163" value="代码优化" style="rounded=1;whiteSpace=wrap;html=1;fontSize=12;glass=0;strokeWidth=1;shadow=0;" vertex="1" parent="WIyWlLk6GJQsqaUBKTNV-1">
          <mxGeometry x="834.25" y="853" width="90" height="30" as="geometry" />
        </mxCell>
        <mxCell id="mbf3BSNoUGLcC62J1Hfp-168" value="组件交付" style="rounded=1;whiteSpace=wrap;html=1;fontSize=12;glass=0;strokeWidth=1;shadow=0;" vertex="1" parent="WIyWlLk6GJQsqaUBKTNV-1">
          <mxGeometry x="1181.16" y="922" width="90" height="30" as="geometry" />
        </mxCell>
        <mxCell id="mbf3BSNoUGLcC62J1Hfp-174" value="&lt;font style=&quot;font-size: 18px;&quot;&gt;&lt;b style=&quot;&quot;&gt;前端项目 PFV&lt;/b&gt;&lt;/font&gt;" style="text;html=1;align=center;verticalAlign=middle;whiteSpace=wrap;rounded=0;" vertex="1" parent="WIyWlLk6GJQsqaUBKTNV-1">
          <mxGeometry x="-827" y="50" width="180" height="30" as="geometry" />
        </mxCell>
        <mxCell id="mbf3BSNoUGLcC62J1Hfp-178" value="" style="endArrow=none;dashed=1;html=1;rounded=0;" edge="1" parent="WIyWlLk6GJQsqaUBKTNV-1">
          <mxGeometry width="50" height="50" relative="1" as="geometry">
            <mxPoint x="1325.41" y="803" as="sourcePoint" />
            <mxPoint x="1325.41" y="1023" as="targetPoint" />
          </mxGeometry>
        </mxCell>
        <mxCell id="mbf3BSNoUGLcC62J1Hfp-179" value="组件库迭代完成" style="text;html=1;align=center;verticalAlign=middle;resizable=0;points=[];autosize=1;strokeColor=none;fillColor=none;" vertex="1" parent="WIyWlLk6GJQsqaUBKTNV-1">
          <mxGeometry x="1271.16" y="1040" width="110" height="30" as="geometry" />
        </mxCell>
        <mxCell id="mbf3BSNoUGLcC62J1Hfp-181" value="" style="endArrow=none;dashed=1;html=1;rounded=0;" edge="1" parent="WIyWlLk6GJQsqaUBKTNV-1">
          <mxGeometry width="50" height="50" relative="1" as="geometry">
            <mxPoint x="382.25" y="108" as="sourcePoint" />
            <mxPoint x="382.25" y="328" as="targetPoint" />
          </mxGeometry>
        </mxCell>
        <mxCell id="mbf3BSNoUGLcC62J1Hfp-182" value="已交付" style="text;html=1;align=center;verticalAlign=middle;resizable=0;points=[];autosize=1;strokeColor=none;fillColor=none;" vertex="1" parent="WIyWlLk6GJQsqaUBKTNV-1">
          <mxGeometry x="353" y="338" width="60" height="30" as="geometry" />
        </mxCell>
        <mxCell id="mbf3BSNoUGLcC62J1Hfp-183" value="&lt;font style=&quot;font-size: 12px;&quot;&gt;&lt;b style=&quot;&quot;&gt;前端界面开发&lt;/b&gt;&lt;/font&gt;" style="text;html=1;align=center;verticalAlign=middle;whiteSpace=wrap;rounded=0;" vertex="1" parent="WIyWlLk6GJQsqaUBKTNV-1">
          <mxGeometry x="-809" y="840" width="180" height="30" as="geometry" />
        </mxCell>
        <mxCell id="mbf3BSNoUGLcC62J1Hfp-184" style="edgeStyle=orthogonalEdgeStyle;rounded=0;orthogonalLoop=1;jettySize=auto;html=1;entryX=0;entryY=0.5;entryDx=0;entryDy=0;" edge="1" parent="WIyWlLk6GJQsqaUBKTNV-1" source="mbf3BSNoUGLcC62J1Hfp-185" target="mbf3BSNoUGLcC62J1Hfp-189">
          <mxGeometry relative="1" as="geometry" />
        </mxCell>
        <mxCell id="mbf3BSNoUGLcC62J1Hfp-185" value="&lt;span style=&quot;font-family: -webkit-standard; text-align: start; caret-color: rgb(0, 0, 0);&quot;&gt;组件库迭代&lt;/span&gt;" style="rounded=1;whiteSpace=wrap;html=1;fontSize=12;glass=0;strokeWidth=1;shadow=0;" vertex="1" parent="WIyWlLk6GJQsqaUBKTNV-1">
          <mxGeometry x="-610" y="910" width="90" height="30" as="geometry" />
        </mxCell>
        <mxCell id="mbf3BSNoUGLcC62J1Hfp-186" value="" style="endArrow=none;dashed=1;html=1;rounded=0;" edge="1" parent="WIyWlLk6GJQsqaUBKTNV-1">
          <mxGeometry width="50" height="50" relative="1" as="geometry">
            <mxPoint x="-640.59" y="800" as="sourcePoint" />
            <mxPoint x="-640.59" y="1020" as="targetPoint" />
          </mxGeometry>
        </mxCell>
        <mxCell id="mbf3BSNoUGLcC62J1Hfp-187" value="工期评估完成" style="text;html=1;align=center;verticalAlign=middle;resizable=0;points=[];autosize=1;strokeColor=none;fillColor=none;" vertex="1" parent="WIyWlLk6GJQsqaUBKTNV-1">
          <mxGeometry x="-699" y="1040" width="100" height="30" as="geometry" />
        </mxCell>
        <mxCell id="mbf3BSNoUGLcC62J1Hfp-188" style="edgeStyle=orthogonalEdgeStyle;rounded=0;orthogonalLoop=1;jettySize=auto;html=1;" edge="1" parent="WIyWlLk6GJQsqaUBKTNV-1" source="mbf3BSNoUGLcC62J1Hfp-189" target="mbf3BSNoUGLcC62J1Hfp-191">
          <mxGeometry relative="1" as="geometry" />
        </mxCell>
        <mxCell id="mbf3BSNoUGLcC62J1Hfp-189" value="功能模块开发" style="rounded=1;whiteSpace=wrap;html=1;fontSize=12;glass=0;strokeWidth=1;shadow=0;" vertex="1" parent="WIyWlLk6GJQsqaUBKTNV-1">
          <mxGeometry x="-485" y="910" width="90" height="30" as="geometry" />
        </mxCell>
        <mxCell id="mbf3BSNoUGLcC62J1Hfp-190" style="edgeStyle=orthogonalEdgeStyle;rounded=0;orthogonalLoop=1;jettySize=auto;html=1;exitX=1;exitY=0.5;exitDx=0;exitDy=0;" edge="1" parent="WIyWlLk6GJQsqaUBKTNV-1" source="mbf3BSNoUGLcC62J1Hfp-191" target="mbf3BSNoUGLcC62J1Hfp-194">
          <mxGeometry relative="1" as="geometry" />
        </mxCell>
        <mxCell id="mbf3BSNoUGLcC62J1Hfp-191" value="前后端接口定义" style="rounded=1;whiteSpace=wrap;html=1;fontSize=12;glass=0;strokeWidth=1;shadow=0;" vertex="1" parent="WIyWlLk6GJQsqaUBKTNV-1">
          <mxGeometry x="-358" y="910" width="90" height="30" as="geometry" />
        </mxCell>
        <mxCell id="mbf3BSNoUGLcC62J1Hfp-192" value="" style="endArrow=none;dashed=1;html=1;rounded=0;" edge="1" parent="WIyWlLk6GJQsqaUBKTNV-1">
          <mxGeometry width="50" height="50" relative="1" as="geometry">
            <mxPoint x="-120" y="800" as="sourcePoint" />
            <mxPoint x="-120" y="1020" as="targetPoint" />
          </mxGeometry>
        </mxCell>
        <mxCell id="mbf3BSNoUGLcC62J1Hfp-193" value="前端开发完成" style="text;html=1;align=center;verticalAlign=middle;resizable=0;points=[];autosize=1;strokeColor=none;fillColor=none;" vertex="1" parent="WIyWlLk6GJQsqaUBKTNV-1">
          <mxGeometry x="-177.75" y="1040" width="100" height="30" as="geometry" />
        </mxCell>
        <mxCell id="mbf3BSNoUGLcC62J1Hfp-194" value="界面整合" style="rounded=1;whiteSpace=wrap;html=1;fontSize=12;glass=0;strokeWidth=1;shadow=0;" vertex="1" parent="WIyWlLk6GJQsqaUBKTNV-1">
          <mxGeometry x="-236" y="910.25" width="90" height="30" as="geometry" />
        </mxCell>
        <mxCell id="mbf3BSNoUGLcC62J1Hfp-199" value="&lt;b&gt;界面代码交付&lt;/b&gt;" style="text;html=1;align=center;verticalAlign=middle;whiteSpace=wrap;rounded=0;" vertex="1" parent="WIyWlLk6GJQsqaUBKTNV-1">
          <mxGeometry x="-807.25" y="1190" width="180" height="30" as="geometry" />
        </mxCell>
        <mxCell id="mbf3BSNoUGLcC62J1Hfp-230" style="edgeStyle=orthogonalEdgeStyle;rounded=0;orthogonalLoop=1;jettySize=auto;html=1;" edge="1" parent="WIyWlLk6GJQsqaUBKTNV-1" source="mbf3BSNoUGLcC62J1Hfp-201" target="mbf3BSNoUGLcC62J1Hfp-228">
          <mxGeometry relative="1" as="geometry" />
        </mxCell>
        <mxCell id="mbf3BSNoUGLcC62J1Hfp-201" value="&lt;div style=&quot;text-align: start;&quot;&gt;&lt;span style=&quot;background-color: initial;&quot;&gt;&lt;font face=&quot;-webkit-standard&quot;&gt;发起 merge request&lt;/font&gt;&lt;/span&gt;&lt;/div&gt;" style="rounded=1;whiteSpace=wrap;html=1;fontSize=12;glass=0;strokeWidth=1;shadow=0;" vertex="1" parent="WIyWlLk6GJQsqaUBKTNV-1">
          <mxGeometry x="-610" y="1235.25" width="128.25" height="30" as="geometry" />
        </mxCell>
        <mxCell id="mbf3BSNoUGLcC62J1Hfp-202" value="" style="endArrow=none;dashed=1;html=1;rounded=0;" edge="1" parent="WIyWlLk6GJQsqaUBKTNV-1">
          <mxGeometry width="50" height="50" relative="1" as="geometry">
            <mxPoint x="-639.84" y="1150" as="sourcePoint" />
            <mxPoint x="-639.84" y="1370" as="targetPoint" />
          </mxGeometry>
        </mxCell>
        <mxCell id="mbf3BSNoUGLcC62J1Hfp-203" value="工期评估完成" style="text;html=1;align=center;verticalAlign=middle;resizable=0;points=[];autosize=1;strokeColor=none;fillColor=none;" vertex="1" parent="WIyWlLk6GJQsqaUBKTNV-1">
          <mxGeometry x="-699" y="1370" width="100" height="30" as="geometry" />
        </mxCell>
        <mxCell id="mbf3BSNoUGLcC62J1Hfp-208" value="" style="endArrow=none;dashed=1;html=1;rounded=0;" edge="1" parent="WIyWlLk6GJQsqaUBKTNV-1">
          <mxGeometry width="50" height="50" relative="1" as="geometry">
            <mxPoint x="108.75" y="1140" as="sourcePoint" />
            <mxPoint x="108.75" y="1360" as="targetPoint" />
          </mxGeometry>
        </mxCell>
        <mxCell id="mbf3BSNoUGLcC62J1Hfp-209" value="前端开发完成" style="text;html=1;align=center;verticalAlign=middle;resizable=0;points=[];autosize=1;strokeColor=none;fillColor=none;" vertex="1" parent="WIyWlLk6GJQsqaUBKTNV-1">
          <mxGeometry x="60" y="1369" width="100" height="30" as="geometry" />
        </mxCell>
        <mxCell id="mbf3BSNoUGLcC62J1Hfp-218" style="edgeStyle=orthogonalEdgeStyle;rounded=0;orthogonalLoop=1;jettySize=auto;html=1;entryX=0;entryY=0.5;entryDx=0;entryDy=0;" edge="1" parent="WIyWlLk6GJQsqaUBKTNV-1" source="mbf3BSNoUGLcC62J1Hfp-211" target="mbf3BSNoUGLcC62J1Hfp-217">
          <mxGeometry relative="1" as="geometry" />
        </mxCell>
        <mxCell id="mbf3BSNoUGLcC62J1Hfp-219" value="&amp;nbsp;通过" style="edgeLabel;html=1;align=center;verticalAlign=middle;resizable=0;points=[];" vertex="1" connectable="0" parent="mbf3BSNoUGLcC62J1Hfp-218">
          <mxGeometry x="-0.3199" y="-1" relative="1" as="geometry">
            <mxPoint x="3" y="-11" as="offset" />
          </mxGeometry>
        </mxCell>
        <mxCell id="mbf3BSNoUGLcC62J1Hfp-237" value="不通过" style="edgeStyle=orthogonalEdgeStyle;rounded=0;orthogonalLoop=1;jettySize=auto;html=1;exitX=0.5;exitY=1;exitDx=0;exitDy=0;entryX=1;entryY=0.5;entryDx=0;entryDy=0;" edge="1" parent="WIyWlLk6GJQsqaUBKTNV-1" source="mbf3BSNoUGLcC62J1Hfp-211" target="mbf3BSNoUGLcC62J1Hfp-216">
          <mxGeometry x="-0.5929" y="24" relative="1" as="geometry">
            <mxPoint as="offset" />
          </mxGeometry>
        </mxCell>
        <mxCell id="mbf3BSNoUGLcC62J1Hfp-211" value="" style="rhombus;whiteSpace=wrap;html=1;shadow=0;fontFamily=Helvetica;fontSize=12;align=center;strokeWidth=1;spacing=6;spacingTop=-4;" vertex="1" parent="WIyWlLk6GJQsqaUBKTNV-1">
          <mxGeometry x="-265.75" y="1235.25" width="63" height="30" as="geometry" />
        </mxCell>
        <mxCell id="mbf3BSNoUGLcC62J1Hfp-220" style="edgeStyle=orthogonalEdgeStyle;rounded=0;orthogonalLoop=1;jettySize=auto;html=1;" edge="1" parent="WIyWlLk6GJQsqaUBKTNV-1" source="mbf3BSNoUGLcC62J1Hfp-216" target="mbf3BSNoUGLcC62J1Hfp-201">
          <mxGeometry relative="1" as="geometry">
            <Array as="points">
              <mxPoint x="-546" y="1329" />
            </Array>
          </mxGeometry>
        </mxCell>
        <mxCell id="mbf3BSNoUGLcC62J1Hfp-216" value="&lt;div style=&quot;text-align: start;&quot;&gt;&lt;span style=&quot;background-color: initial;&quot;&gt;&lt;font face=&quot;-webkit-standard&quot;&gt;代码优化&lt;/font&gt;&lt;/span&gt;&lt;/div&gt;" style="rounded=1;whiteSpace=wrap;html=1;fontSize=12;glass=0;strokeWidth=1;shadow=0;" vertex="1" parent="WIyWlLk6GJQsqaUBKTNV-1">
          <mxGeometry x="-440" y="1313" width="128.25" height="30" as="geometry" />
        </mxCell>
        <mxCell id="mbf3BSNoUGLcC62J1Hfp-217" value="&lt;div style=&quot;text-align: start;&quot;&gt;&lt;span style=&quot;background-color: initial;&quot;&gt;&lt;font face=&quot;-webkit-standard&quot;&gt;代码入库&lt;/font&gt;&lt;/span&gt;&lt;/div&gt;" style="rounded=1;whiteSpace=wrap;html=1;fontSize=12;glass=0;strokeWidth=1;shadow=0;" vertex="1" parent="WIyWlLk6GJQsqaUBKTNV-1">
          <mxGeometry x="-116" y="1235.25" width="128.25" height="30" as="geometry" />
        </mxCell>
        <mxCell id="mbf3BSNoUGLcC62J1Hfp-225" value="估算工期" style="rounded=1;whiteSpace=wrap;html=1;fontSize=12;glass=0;strokeWidth=1;shadow=0;" vertex="1" parent="WIyWlLk6GJQsqaUBKTNV-1">
          <mxGeometry x="-236" y="570.25" width="90" height="30" as="geometry" />
        </mxCell>
        <mxCell id="mbf3BSNoUGLcC62J1Hfp-234" style="edgeStyle=orthogonalEdgeStyle;rounded=0;orthogonalLoop=1;jettySize=auto;html=1;" edge="1" parent="WIyWlLk6GJQsqaUBKTNV-1" source="mbf3BSNoUGLcC62J1Hfp-228" target="mbf3BSNoUGLcC62J1Hfp-211">
          <mxGeometry relative="1" as="geometry" />
        </mxCell>
        <mxCell id="mbf3BSNoUGLcC62J1Hfp-228" value="&lt;div style=&quot;text-align: start;&quot;&gt;&lt;span style=&quot;background-color: initial;&quot;&gt;&lt;font face=&quot;-webkit-standard&quot;&gt;code review&lt;/font&gt;&lt;/span&gt;&lt;/div&gt;" style="rounded=1;whiteSpace=wrap;html=1;fontSize=12;glass=0;strokeWidth=1;shadow=0;" vertex="1" parent="WIyWlLk6GJQsqaUBKTNV-1">
          <mxGeometry x="-440" y="1235.25" width="128.25" height="30" as="geometry" />
        </mxCell>
        <mxCell id="mbf3BSNoUGLcC62J1Hfp-241" style="edgeStyle=orthogonalEdgeStyle;rounded=0;orthogonalLoop=1;jettySize=auto;html=1;" edge="1" parent="WIyWlLk6GJQsqaUBKTNV-1" source="mbf3BSNoUGLcC62J1Hfp-238" target="mbf3BSNoUGLcC62J1Hfp-155">
          <mxGeometry relative="1" as="geometry" />
        </mxCell>
        <mxCell id="mbf3BSNoUGLcC62J1Hfp-238" value="code review" style="rounded=1;whiteSpace=wrap;html=1;fontSize=12;glass=0;strokeWidth=1;shadow=0;" vertex="1" parent="WIyWlLk6GJQsqaUBKTNV-1">
          <mxGeometry x="920" y="922.75" width="90" height="30" as="geometry" />
        </mxCell>
      </root>
    </mxGraphModel>
  </diagram>
</mxfile>
